<?xml version="1.0" encoding="UTF-8" standalone="no"?>
<!-- Created with Inkscape (http://www.inkscape.org/) -->

<svg
   xmlns:dc="http://purl.org/dc/elements/1.1/"
   xmlns:cc="http://creativecommons.org/ns#"
   xmlns:rdf="http://www.w3.org/1999/02/22-rdf-syntax-ns#"
   xmlns:svg="http://www.w3.org/2000/svg"
   xmlns="http://www.w3.org/2000/svg"
   xmlns:sodipodi="http://sodipodi.sourceforge.net/DTD/sodipodi-0.dtd"
   xmlns:inkscape="http://www.inkscape.org/namespaces/inkscape"
   width="728"
   height="90"
   id="svg3488"
   version="1.1"
   inkscape:version="0.92.4 5da689c313, 2019-01-14"
   viewBox="0 0 728 90"
   sodipodi:docname="logo_AL-profesional.svg"
   inkscape:export-filename="/home/anarkity/lema/logo_AL1.png"
   inkscape:export-xdpi="96"
   inkscape:export-ydpi="96">
  <defs
     id="defs3490" />
  <sodipodi:namedview
     id="base"
     pagecolor="#ffffff"
     bordercolor="#666666"
     borderopacity="1.0"
     inkscape:pageopacity="0.0"
     inkscape:pageshadow="2"
     inkscape:zoom="1"
     inkscape:cx="439.85455"
     inkscape:cy="53.914227"
     inkscape:document-units="px"
     inkscape:current-layer="layer1"
     showgrid="false"
     inkscape:window-width="1918"
     inkscape:window-height="1026"
     inkscape:window-x="1367"
     inkscape:window-y="53"
     inkscape:window-maximized="1"
     showguides="false" />
  <metadata
     id="metadata3493">
    <rdf:RDF>
      <cc:Work
         rdf:about="">
        <dc:format>image/svg+xml</dc:format>
        <dc:type
           rdf:resource="http://purl.org/dc/dcmitype/StillImage" />
        <dc:title></dc:title>
      </cc:Work>
    </rdf:RDF>
  </metadata>
  <g
     id="layer1"
     inkscape:label="Layer 1"
     inkscape:groupmode="layer">
    <path
       style="fill:#000000;stroke-width:0.51356637"
       d="m 200.21259,71.418193 v -16.43412 h 7.2205 7.22049 l -2.02725,2.439439 c -4.0916,4.923503 -4.76429,8.531967 -1.97709,10.605482 1.37369,1.021943 2.06544,1.078152 13.268,1.078152 h 11.81874 l 1.11187,-1.294037 c 0.61154,-0.711723 24.09081,-36.805829 52.1762,-80.209128 34.94764,-54.008316 51.39971,-79.708756 52.12698,-79.904068 0.58446,-0.15696 5.0492,0.02921 9.92167,0.02536 l 8.85904,-0.007 v 22.774757 22.388919 l -20.4143,32.914974 c -11.22785,18.1032369 -20.48896,33.21865 -20.58028,33.589809 -0.13517,0.54894 3.67338,0.674836 20.41426,0.674836 h 20.58032 v 17.204471 17.204473 l -30.17205,0.01315 -30.17201,0.01315 -9.16814,16.677757 -9.16815,16.966641 h -40.5194 -40.5194 z"
       id="path4404"
       inkscape:connector-curvature="0"
       sodipodi:nodetypes="cccccssccscscccscscccccccccc" />
    <path
       style="fill:#000000;stroke-width:0.36314619"
       d="m 363.69346,-2.0465196 c 0.0929,-49.5321844 0.23766,-90.1266904 0.32185,-90.2100204 0.0842,-0.08333 7.08971,-0.198263 15.56783,-0.255409 l 15.41473,-0.1039 0.55153,1.252307 c 0.45142,1.024991 0.5356,2.808402 0.46375,9.824961 -0.0723,7.053199 0.004,8.64874 0.42948,9.001944 0.89276,0.740934 2.28313,-0.952242 3.84542,-4.682905 l 1.4447,-3.44989 0.0103,65.997105 0.0103,65.99711 -1.62276,-0.788402 c -3.21141,-1.56022 -5.83849,0.193964 -5.80324,3.875004 0.0322,3.374101 2.49016,5.879373 7.4106,7.553553 l 2.37584,0.808388 26.50966,-0.117175 c 33.27812,-0.147106 41.63816,-0.429421 44.73628,-1.510755 2.6857,-0.937386 5.20176,-3.032581 6.25537,-5.209015 1.02161,-2.110408 1.0218,-5.855011 3.7e-4,-8.879513 -1.36746,-4.049358 -5.34704,-9.211158 -9.90303,-12.844989 l -1.76225,-1.405579 4.1227,0.186979 c 2.2675,0.102836 9.80143,0.28689 16.74207,0.409014 l 12.61933,0.222044 v 27.193831 27.193831 h -69.9544 -69.95519 z"
       id="path4412"
       inkscape:connector-curvature="0" />
    <path
       style="fill:#808080;stroke-width:0.36314619"
       d="m 361.72675,-0.22604888 c 0.14627,-49.58307712 0.29764,-90.18691212 0.33553,-90.23073712 0.0378,-0.04383 6.99546,-0.09497 15.46131,-0.113653 l 15.39242,-0.03397 0.56686,1.021517 c 0.47731,0.860176 0.55288,2.405703 0.47852,9.785398 -0.0729,7.232787 0.002,8.839137 0.43071,9.194644 1.13474,0.941749 2.05489,-0.338397 4.68607,-6.51942 0.48214,-1.132605 0.54428,5.896516 0.57067,64.549951 l 0.0296,65.820963 -1.35641,-0.727 c -2.5589,-1.371485 -4.73962,-0.634008 -5.72058,1.934595 -1.71835,4.499462 2.70685,8.847224 10.24579,10.066504 1.7216,0.278439 10.36233,0.326125 28.78805,0.158877 29.7938,-0.270444 38.53348,-0.568762 41.23353,-1.407451 9.09589,-2.825334 10.12263,-12.12295 2.39611,-21.698008 -1.1864,-1.470255 -3.23396,-3.560321 -4.55013,-4.644577 -1.31617,-1.084259 -2.35413,-1.988581 -2.30659,-2.009604 0.0475,-0.02104 4.9889,0.07214 10.98082,0.207047 5.99192,0.134903 13.38649,0.262995 16.43237,0.284655 l 5.53799,0.03938 V 62.689034 89.925 H 431.40973 361.4601 Z"
       id="path4406"
       inkscape:connector-curvature="0" />
    <path
       style="fill:#c83737;stroke-width:0.36314619"
       d="M 197.51524,73.486141 V 57.144562 h 6.90987 6.90989 l -1.8819,2.451236 c -2.37846,3.098086 -3.2043,4.910227 -3.21436,7.053416 -0.006,1.411951 0.17748,1.882388 1.09558,2.800579 0.60697,0.606961 1.62831,1.197872 2.26967,1.313133 0.64134,0.115265 6.31021,0.162328 12.59747,0.104582 l 11.43134,-0.104972 6.65995,-10.168098 c 6.91359,-10.555314 42.72332,-65.7597645 72.0825,-111.122741 9.30719,-14.380593 18.93302,-29.169722 21.39066,-32.864735 l 4.46848,-6.718205 9.35103,-0.09692 9.35101,-0.09692 v 22.54926 22.549263 L 345.189,-26.260231 c -22.92171,36.968181 -28.92495,46.799706 -28.92495,47.370599 0,0.198626 0.36769,0.459678 0.81709,0.58011 0.44941,0.120441 9.6007,0.221205 20.33621,0.223931 l 19.51908,0.0049 V 38.987214 56.055089 H 326.8658 296.79515 l -4.93447,8.987867 c -2.71397,4.943328 -6.8508,12.542164 -9.19299,16.8863 l -4.25847,7.898429 h -40.44699 -40.44699 z"
       id="path4410"
       inkscape:connector-curvature="0" />
  </g>
</svg>
